<svg xmlns="http://www.w3.org/2000/svg" viewBox="0 0 48 48" aria-hidden="true" focusable="false">
  <defs>
    <linearGradient id="a" x1="9.856" x2="40.531" y1="9.827" y2="40.502" gradientUnits="userSpaceOnUse">
      <stop offset="0" stop-color="#fff" stop-opacity="0.2"/>
      <stop offset="1" stop-color="#fff" stop-opacity="0"/>
    </linearGradient>
  </defs>
  <circle cx="24" cy="24" r="22" fill="#fff"/>
  <path fill="#ea4335" d="M24 9.5c3.35 0 6.01 1.3 7.86 2.38l5.79-5.79C34.5 3.3 29.7 1.5 24 1.5 14.9 1.5 7.02 6.81 3.56 14.58l6.72 5.21C11.9 13.46 17.45 9.5 24 9.5z"/>
  <path fill="#34a853" d="M24 44.5c5.52 0 10.32-1.82 13.72-4.94l-6.52-5.36C29.53 35.85 26.97 36.5 24 36.5 17.52 36.5 11.98 32.58 10.3 26.71l-6.74 5.19C7 39.35 14.83 44.5 24 44.5z"/>
  <path fill="#4285f4" d="M43.5 24c0-.98-.09-1.93-.24-2.85H24v7.2h10.96c-.92 2.98-2.81 5.21-5.72 6.85l6.52 5.36C40.76 37.08 43.5 31.18 43.5 24z"/>
  <path fill="#fbbc05" d="M10.3 26.71A11.54 11.54 0 0 1 9.5 24c0-.94.16-1.86.43-2.71l-6.37-4.91C2.6 18.49 1.5 21.14 1.5 24c0 2.9 1.12 5.6 2.99 7.86z"/>
  <path fill="#4285f4" d="M24 17.5c3.55 0 5.95 1.54 7.32 2.83l5.39-5.39C33.98 11.88 29.96 9.5 24 9.5c-6.55 0-12.1 3.96-13.72 10.29l6.72 5.21C17.98 19.42 21.1 17.5 24 17.5z" opacity="0.1"/>
  <path fill="url(#a)" d="M24 3c11.6 0 21 9.4 21 21s-9.4 21-21 21S3 35.6 3 24 12.4 3 24 3m0-1.5C13.1 1.5 4.5 10.1 4.5 21S13.1 40.5 24 40.5 43.5 31.9 43.5 21 34.9 1.5 24 1.5z"/>
</svg>
